<?xml version="1.0" standalone="no"?>
<!DOCTYPE svg PUBLIC "-//W3C//DTD SVG 20010904//EN"
 "http://www.w3.org/TR/2001/REC-SVG-20010904/DTD/svg10.dtd">
<svg version="1.0" xmlns="http://www.w3.org/2000/svg"
 width="512.000000pt" height="512.000000pt" viewBox="0 0 512.000000 512.000000"
 preserveAspectRatio="xMidYMid meet">

<g transform="translate(0.000000,512.000000) scale(0.100000,-0.100000)"
fill="#000000" stroke="none">
<path d="M1719 4607 c-2 -3 -93 -7 -201 -10 -109 -3 -201 -8 -206 -11 -4 -2
-34 -6 -66 -7 -31 -1 -59 -6 -62 -11 -3 -4 -16 -8 -29 -8 -24 0 -113 -30 -148
-50 -10 -6 -22 -8 -27 -5 -6 4 -13 0 -16 -8 -3 -8 -23 -22 -45 -32 -35 -16
-43 -26 -41 -46 1 -4 -6 -5 -16 -2 -26 6 -158 -128 -225 -229 -31 -48 -57 -93
-57 -100 0 -8 -5 -19 -10 -24 -6 -6 -13 -23 -16 -39 -3 -15 -10 -37 -15 -47
-6 -11 -9 -22 -6 -24 3 -3 -2 -26 -11 -52 -14 -42 -17 -175 -20 -1182 -4
-1184 0 -1323 38 -1465 26 -96 51 -153 105 -237 48 -73 161 -190 230 -238 63
-43 180 -99 243 -116 156 -41 237 -44 1380 -44 702 0 1127 4 1190 11 243 26
396 95 550 247 112 110 182 228 222 372 37 132 42 307 37 1475 -3 1005 -5
1126 -20 1180 -9 33 -19 69 -21 80 -8 37 -32 85 -40 78 -4 -4 -4 1 0 11 4 11
3 17 -2 14 -5 -4 -10 4 -10 16 -2 27 -89 166 -105 166 -5 0 -7 5 -4 10 3 6 -1
10 -10 10 -9 0 -14 4 -10 9 3 5 -4 12 -15 16 -11 4 -17 11 -14 17 5 8 1 9 -10
5 -11 -5 -15 -3 -10 5 5 7 2 9 -9 5 -11 -4 -14 -2 -10 8 3 8 -2 18 -11 21 -9
3 -13 10 -10 15 3 5 -3 12 -13 16 -10 3 -28 15 -40 26 -13 11 -23 17 -23 14 0
-4 -9 2 -21 14 -21 21 -101 59 -125 59 -8 0 -14 4 -14 8 0 7 -46 22 -120 38
-59 12 -177 25 -207 22 -17 -2 -30 0 -27 4 3 4 -412 7 -920 8 -509 0 -932 3
-939 6 -7 2 -15 3 -18 1z m1906 -581 c46 -7 123 -43 160 -74 11 -9 37 -39 57
-65 73 -96 69 -14 66 -1288 l-3 -1144 -24 -44 c-30 -57 -115 -142 -172 -172
l-44 -24 -1145 -3 -1145 -2 -60 22 c-44 16 -76 38 -122 85 -34 34 -65 75 -69
90 -4 15 -12 34 -18 42 -8 10 -11 337 -11 1170 l0 1156 26 55 c31 65 109 141
176 173 47 22 56 22 613 27 746 7 1657 4 1715 -4z"/>
</g>
</svg>
