<?xml version="1.0" standalone="no"?>
<!DOCTYPE svg PUBLIC "-//W3C//DTD SVG 20010904//EN"
 "http://www.w3.org/TR/2001/REC-SVG-20010904/DTD/svg10.dtd">
<svg version="1.0" xmlns="http://www.w3.org/2000/svg"
 width="256.000000pt" height="256.000000pt" viewBox="0 0 256.000000 256.000000"
 preserveAspectRatio="xMidYMid meet">

<g transform="translate(0.000000,256.000000) scale(0.100000,-0.100000)"
fill="#000000" stroke="none">
<path d="M635 2289 c-77 -10 -134 -31 -189 -68 -52 -36 -121 -112 -146 -161
-43 -87 -45 -115 -45 -760 0 -569 1 -620 18 -675 44 -141 151 -249 292 -292
55 -17 108 -18 685 -18 577 0 630 1 685 18 80 25 145 67 205 135 105 118 113
179 107 912 -4 601 -4 608 -61 704 -38 65 -139 152 -205 177 -30 11 -92 25
-136 30 -97 11 -1125 10 -1210 -2z m1237 -297 c20 -13 47 -40 60 -60 l23 -37
0 -585 0 -585 -23 -37 c-13 -20 -40 -47 -60 -60 l-37 -23 -560 -3 c-405 -2
-572 0 -602 9 -49 13 -102 63 -119 111 -16 44 -19 1115 -3 1171 12 46 68 103
112 116 19 6 265 9 602 8 l570 -2 37 -23z"/>
</g>
</svg>
